<?xml version="1.0" encoding="UTF-8"?>
<!DOCTYPE svg PUBLIC "-//W3C//DTD SVG 1.1//EN" "http://www.w3.org/Graphics/SVG/1.1/DTD/svg11.dtd">
<svg xmlns="http://www.w3.org/2000/svg" version="1.1" width="180px" height="180px" style="shape-rendering:geometricPrecision; text-rendering:geometricPrecision; image-rendering:optimizeQuality; fill-rule:evenodd; clip-rule:evenodd" xmlns:xlink="http://www.w3.org/1999/xlink">
<g><path style="opacity:0.989" fill="#5145b4" d="M 28.5,7.5 C 69.5014,7.33334 110.501,7.50001 151.5,8C 162.196,9.76138 168.696,15.928 171,26.5C 171.667,68.8333 171.667,111.167 171,153.5C 168.5,162.667 162.667,168.5 153.5,171C 111.167,171.667 68.8333,171.667 26.5,171C 15.928,168.696 9.76138,162.196 8,151.5C 7.33333,110.5 7.33333,69.5 8,28.5C 10.3472,16.9873 17.1806,9.98729 28.5,7.5 Z"/></g>
<g><path style="opacity:1" fill="#151045" d="M 165.5,74.5 C 163.804,74.3146 162.471,73.4813 161.5,72C 157.767,71.6977 155.1,73.1977 153.5,76.5C 153.919,77.6721 154.585,78.6721 155.5,79.5C 153.49,81.1713 151.157,81.838 148.5,81.5C 149.878,87.7764 147.211,90.1097 140.5,88.5C 141.558,91.4127 142.891,94.246 144.5,97C 143.5,97.6667 142.5,97.6667 141.5,97C 139.15,93.9493 136.65,93.7826 134,96.5C 133.196,95.1955 132.029,94.5288 130.5,94.5C 127.815,95.1712 125.148,95.8379 122.5,96.5C 120.38,92.5456 117.38,89.3789 113.5,87C 103.723,82.1106 93.7231,77.7772 83.5,74C 80.3249,72.0049 78.6583,69.1715 78.5,65.5C 82.6143,61.5462 87.6143,59.8795 93.5,60.5C 100.623,60.3907 107.29,62.0574 113.5,65.5C 117.475,60.2047 119.808,54.2047 120.5,47.5C 120.762,46.0222 120.429,44.6888 119.5,43.5C 103.792,36.6645 87.7919,35.8311 71.5,41C 63.2127,45.0737 57.8794,51.5737 55.5,60.5C 51.782,73.4528 55.1154,84.2862 65.5,93C 69.9283,95.5406 74.2616,98.0406 78.5,100.5C 76.2953,100.852 74.4619,101.852 73,103.5C 72.6987,106.507 72.8654,109.507 73.5,112.5C 70.0897,112.384 68.7564,114.05 69.5,117.5C 67.5,117.5 65.5,117.5 63.5,117.5C 59.7561,115.883 57.7561,117.217 57.5,121.5C 56.0047,121.585 55.0047,120.919 54.5,119.5C 56.0978,115.519 55.5978,111.852 53,108.5C 51.3005,107.594 49.4672,107.261 47.5,107.5C 46.5127,103.719 44.846,100.219 42.5,97C 37.9979,96.1483 33.6645,96.6483 29.5,98.5C 28.8333,98.1667 28.1667,97.8333 27.5,97.5C 30.4801,94.096 30.9801,90.4293 29,86.5C 26.9592,85.5769 24.7925,85.2436 22.5,85.5C 24.6257,77.9789 21.959,73.9789 14.5,73.5C 14.5,99.1667 14.5,124.833 14.5,150.5C 13.3354,110.335 13.1687,70.0021 14,29.5C 15.1286,23.0256 18.6286,18.1923 24.5,15C 46.1263,13.8611 67.793,13.3611 89.5,13.5C 109.5,13.6667 129.5,13.8333 149.5,14C 157.163,15.6645 162.33,20.1645 165,27.5C 165.5,43.1631 165.667,58.8298 165.5,74.5 Z"/></g>
<g><path style="opacity:1" fill="#fbfbfc" d="M 120.5,47.5 C 118.319,51.8855 116.653,56.5522 115.5,61.5C 110.485,60.1613 105.485,58.6613 100.5,57C 95.8333,56.3333 91.1667,56.3333 86.5,57C 81.5209,57.8084 78.8542,60.6417 78.5,65.5C 78.6583,69.1715 80.3249,72.0049 83.5,74C 93.7231,77.7772 103.723,82.1106 113.5,87C 117.38,89.3789 120.38,92.5456 122.5,96.5C 123.931,98.1887 124.764,100.189 125,102.5C 125.756,109.217 125.589,115.883 124.5,122.5C 120.299,132.629 112.632,138.462 101.5,140C 85.3535,143.035 69.6868,141.535 54.5,135.5C 53.885,130.61 54.885,125.943 57.5,121.5C 57.7561,117.217 59.7561,115.883 63.5,117.5C 73.9135,122.678 84.9135,123.845 96.5,121C 102.25,118.334 103.916,114.167 101.5,108.5C 100.746,105.909 99.079,104.076 96.5,103C 86.2364,99.1997 76.2364,94.8664 66.5,90C 56.8254,82.483 53.1587,72.6497 55.5,60.5C 57.8794,51.5737 63.2127,45.0737 71.5,41C 87.7919,35.8311 103.792,36.6645 119.5,43.5C 120.429,44.6888 120.762,46.0222 120.5,47.5 Z"/></g>
<g><path style="opacity:1" fill="#1c1a3a" d="M 120.5,47.5 C 119.808,54.2047 117.475,60.2047 113.5,65.5C 107.29,62.0574 100.623,60.3907 93.5,60.5C 87.6143,59.8795 82.6143,61.5462 78.5,65.5C 78.8542,60.6417 81.5209,57.8084 86.5,57C 91.1667,56.3333 95.8333,56.3333 100.5,57C 105.485,58.6613 110.485,60.1613 115.5,61.5C 116.653,56.5522 118.319,51.8855 120.5,47.5 Z"/></g>
<g><path style="opacity:1" fill="#1c1a3b" d="M 55.5,60.5 C 53.1587,72.6497 56.8254,82.483 66.5,90C 76.2364,94.8664 86.2364,99.1997 96.5,103C 99.079,104.076 100.746,105.909 101.5,108.5C 101.631,109.239 101.464,109.906 101,110.5C 94.4249,105.139 86.9249,101.806 78.5,100.5C 74.2616,98.0406 69.9283,95.5406 65.5,93C 55.1154,84.2862 51.782,73.4528 55.5,60.5 Z"/></g>
<g><path style="opacity:1" fill="#27234f" d="M 165.5,74.5 C 165.5,91.5 165.5,108.5 165.5,125.5C 163.473,125.662 161.473,125.495 159.5,125C 157.851,122.088 155.517,120.255 152.5,119.5C 149.876,112.921 146.876,112.921 143.5,119.5C 144.115,121.116 145.115,122.449 146.5,123.5C 143.489,126.012 140.656,128.678 138,131.5C 137.5,132.5 137,133.5 136.5,134.5C 137.348,136.409 137.682,138.409 137.5,140.5C 130.522,138.992 125.855,141.658 123.5,148.5C 125.019,151.601 125.685,154.934 125.5,158.5C 124.167,158.5 122.833,158.5 121.5,158.5C 121.448,160.903 121.781,163.236 122.5,165.5C 90.8316,165.667 59.1649,165.5 27.5,165C 20.5142,162.516 16.1808,157.682 14.5,150.5C 14.5,124.833 14.5,99.1667 14.5,73.5C 21.959,73.9789 24.6257,77.9789 22.5,85.5C 24.7925,85.2436 26.9592,85.5769 29,86.5C 30.9801,90.4293 30.4801,94.096 27.5,97.5C 28.1667,97.8333 28.8333,98.1667 29.5,98.5C 33.6645,96.6483 37.9979,96.1483 42.5,97C 44.846,100.219 46.5127,103.719 47.5,107.5C 49.4672,107.261 51.3005,107.594 53,108.5C 55.5978,111.852 56.0978,115.519 54.5,119.5C 55.0047,120.919 56.0047,121.585 57.5,121.5C 54.885,125.943 53.885,130.61 54.5,135.5C 53.9033,135.735 53.5699,136.235 53.5,137C 54.2718,138.221 55.2718,139.221 56.5,140C 72.8286,146.098 89.4952,147.098 106.5,143C 117.006,140.001 123.006,133.168 124.5,122.5C 125.589,115.883 125.756,109.217 125,102.5C 124.764,100.189 123.931,98.1887 122.5,96.5C 125.148,95.8379 127.815,95.1712 130.5,94.5C 132.029,94.5288 133.196,95.1955 134,96.5C 136.65,93.7826 139.15,93.9493 141.5,97C 142.5,97.6667 143.5,97.6667 144.5,97C 142.891,94.246 141.558,91.4127 140.5,88.5C 147.211,90.1097 149.878,87.7764 148.5,81.5C 151.157,81.838 153.49,81.1713 155.5,79.5C 154.585,78.6721 153.919,77.6721 153.5,76.5C 155.1,73.1977 157.767,71.6977 161.5,72C 162.471,73.4813 163.804,74.3146 165.5,74.5 Z"/></g>
<g><path style="opacity:1" fill="#2c2752" d="M 78.5,100.5 C 86.9249,101.806 94.4249,105.139 101,110.5C 101.464,109.906 101.631,109.239 101.5,108.5C 103.916,114.167 102.25,118.334 96.5,121C 84.9135,123.845 73.9135,122.678 63.5,117.5C 65.5,117.5 67.5,117.5 69.5,117.5C 68.7564,114.05 70.0897,112.384 73.5,112.5C 72.8654,109.507 72.6987,106.507 73,103.5C 74.4619,101.852 76.2953,100.852 78.5,100.5 Z"/></g>
<g><path style="opacity:1" fill="#1c1c4b" d="M 165.5,125.5 C 165.666,134.173 165.5,142.84 165,151.5C 163.167,158.667 158.667,163.167 151.5,165C 141.839,165.5 132.172,165.666 122.5,165.5C 121.781,163.236 121.448,160.903 121.5,158.5C 122.833,158.5 124.167,158.5 125.5,158.5C 125.685,154.934 125.019,151.601 123.5,148.5C 125.855,141.658 130.522,138.992 137.5,140.5C 137.682,138.409 137.348,136.409 136.5,134.5C 137,133.5 137.5,132.5 138,131.5C 140.656,128.678 143.489,126.012 146.5,123.5C 145.115,122.449 144.115,121.116 143.5,119.5C 146.876,112.921 149.876,112.921 152.5,119.5C 155.517,120.255 157.851,122.088 159.5,125C 161.473,125.495 163.473,125.662 165.5,125.5 Z"/></g>
<g><path style="opacity:1" fill="#1d1b39" d="M 124.5,122.5 C 123.006,133.168 117.006,140.001 106.5,143C 89.4952,147.098 72.8286,146.098 56.5,140C 55.2718,139.221 54.2718,138.221 53.5,137C 53.5699,136.235 53.9033,135.735 54.5,135.5C 69.6868,141.535 85.3535,143.035 101.5,140C 112.632,138.462 120.299,132.629 124.5,122.5 Z"/></g>
</svg>
